<svg height="496pt" viewBox="0 -88 496 496" width="496pt" xmlns="http://www.w3.org/2000/svg" >
<path fill="white"
 d="m400 80h-40v-40c0-22.054688-17.945312-40-40-40h-32c-4.414062 0-8 3.585938-8 8v16c0 22.054688 17.945312 40 40 40h24v16h-248c-52.9375 0-96 53.832031-96 120s43.0625 120 96 120h304c52.9375 0 96-53.832031 96-120s-43.0625-120-96-120zm-104-56v-8h24c13.230469 0 24 10.769531 24 24v8h-24c-13.230469 0-24-10.769531-24-24zm-280 176c0-57.34375 35.886719-104 80-104 20.929688 0 40.742188 10.511719 55.808594 29.601562 1.4375 1.824219 3.597656 2.925782 5.917968 3.03125l96.417969 4.382813-78.578125 15.710937c-2.246094.449219-4.191406 1.839844-5.34375 3.824219s-1.398437 4.359375-.679687 6.539063c4.28125 12.957031 6.457031 26.726562 6.457031 40.910156 0 8.585938-.910156 17.457031-2.710938 26.351562-.824218 4.054688 1.582032 8.0625 5.535157 9.25l26.441406 7.925782-32.96875 2.753906c-2.9375.238281-5.496094 2.078125-6.664063 4.773438-14.242187 32.65625-40.921874 52.945312-69.632812 52.945312-44.113281 0-80-46.65625-80-104zm384 104h-256.113281c13.9375-10.023438 25.867187-24.398438 34.402343-42.167969l70.375-5.863281c3.832032-.3125 6.894532-3.3125 7.296876-7.144531.398437-3.824219-1.976563-7.382813-5.65625-8.496094l-60.046876-18.015625c1.15625-7.511719 1.742188-15 1.742188-22.3125 0-12.792969-1.585938-25.296875-4.71875-37.296875l134.285156-26.855469c3.96875-.792968 6.714844-4.414062 6.410156-8.449218-.3125-4.03125-3.578124-7.199219-7.617187-7.382813l-158.335937-7.191406c-5.558594-6.59375-11.695313-12.136719-18.191407-16.816407h200.167969v16c0 26.472657 21.527344 48 48 48v-16c-16.257812 0-29.574219-12.230468-31.59375-27.953124 8.457031 7.410156 19.488281 11.945312 31.59375 11.945312v-16c-11.792969 0-22-6.480469-27.550781-16h35.550781c44.113281 0 80 46.65625 80 104s-35.886719 104-80 104zm0 0"/>
 <path fill="white" d="m111.695312 192.671875c.199219 2.382813.304688 4.832031.304688 7.328125 0 24.414062-9.480469 40-16 40-3.894531 0-9.648438-6.257812-13.105469-18.214844l-15.367187 4.4375c5.394531 18.640625 16.03125 29.777344 28.472656 29.777344 18.238281 0 32-24.078125 32-56 0-2.953125-.128906-5.847656-.359375-8.671875zm0 0"/>
 <path fill="white" d="m96 160c3.894531 0 9.648438 6.257812 13.105469 18.214844l15.367187-4.4375c-5.394531-18.640625-16.03125-29.777344-28.472656-29.777344-18.238281 0-32 24.078125-32 56 0 2.953125.128906 5.847656.359375 8.671875l15.945313-1.34375c-.199219-2.382813-.304688-4.832031-.304688-7.328125 0-24.414062 9.480469-40 16-40zm0 0"/>
 <path fill="white" d="m96 272c-26.472656 0-48-32.296875-48-72 0-7.609375.800781-15.105469 2.375-22.28125l-15.621094-3.4375c-1.824218 8.3125-2.753906 16.957031-2.753906 25.71875 0 48.519531 28.710938 88 64 88 6.527344 0 12.96875-1.328125 19.136719-3.953125l-6.257813-14.71875c-4.183594 1.777344-8.511718 2.671875-12.878906 2.671875zm0 0"/>
 <path fill="white" d="m96 112c-14.503906 0-28.152344 6.414062-39.457031 18.542969l11.703125 10.90625c8.203125-8.792969 17.800781-13.449219 27.753906-13.449219 26.472656 0 48 32.304688 48 72 0 19.464844-5.183594 37.734375-14.59375 51.464844l13.195312 9.046875c11.222657-16.359375 17.398438-37.855469 17.398438-60.511719 0-48.519531-28.710938-88-64-88zm0 0"/>
 <path fill="white" d="m401.457031 219.230469c-18.5625 18.554687-43.226562 28.769531-69.457031 28.769531-30.503906 0-59.183594 11.878906-80.785156 33.472656l-.886719.886719 11.335937 11.28125.871094-.871094c18.570313-18.554687 43.234375-28.769531 69.464844-28.769531 30.503906 0 59.183594-11.878906 80.785156-33.472656l.886719-.886719-11.335937-11.28125zm0 0"/>
 <path fill="white" d="m413.457031 179.089844c-9.785156 3.253906-19.976562 4.910156-30.304687 4.910156h-11.152344c-12.238281 0-24.214844-2.304688-35.609375-6.855469l-2.855469-1.144531c-26.550781-10.609375-56.519531-10.609375-83.078125 0l-21.433593 8.566406 5.9375 14.859375 21.429687-8.570312c22.769531-9.113281 48.433594-9.113281 71.210937 0l2.863282 1.144531c13.277344 5.304688 27.253906 8 41.535156 8h11.152344c12.046875 0 23.953125-1.929688 35.367187-5.742188l32.007813-10.671874-5.0625-15.171876zm0 0"/>
</svg>